<svg width="408" height="350" viewBox="0 0 408 350" fill="none" xmlns="http://www.w3.org/2000/svg">
<rect x="58" y="130" width="350" height="220" rx="16.383" fill="#00BD47"/>
<path d="M97.0579 284.168C100.005 284.168 101.685 285.959 101.685 288.399C101.685 290.839 100.005 292.63 97.0579 292.63H96.4557V294.135H94.9344V292.63H94.4907C91.4482 292.63 89.705 290.839 89.705 288.399C89.705 285.959 91.3848 284.168 94.4907 284.168H94.9344V282.663H96.4557V284.168H97.0579ZM91.258 288.399C91.258 290.316 92.4465 291.426 94.4907 291.426H94.9503V285.372H94.4907C92.3831 285.372 91.258 286.482 91.258 288.399ZM97.0579 291.426C99.007 291.426 100.132 290.316 100.132 288.399C100.132 286.482 99.007 285.372 97.0579 285.372H96.4398V291.426H97.0579ZM104.065 284.437C103.51 284.437 103.114 284.041 103.114 283.487C103.114 282.932 103.51 282.536 104.065 282.536C104.619 282.536 105.016 282.932 105.016 283.487C105.016 284.041 104.619 284.437 104.065 284.437ZM103.352 293.945V286.18H104.778V293.945H103.352ZM111.393 289.809C112.091 290.095 112.772 290.681 112.772 291.584C112.772 293.153 111.694 294.135 109.508 294.135C108.462 294.135 107.495 293.834 106.766 293.264V291.679C107.463 292.487 108.43 292.899 109.555 292.899C110.649 292.899 111.33 292.424 111.33 291.616C111.33 291.109 110.87 290.586 109.904 290.586H108.636V289.397H109.793C110.966 289.397 111.124 288.763 111.124 288.304C111.124 287.638 110.553 287.195 109.619 287.195C108.826 287.195 108.161 287.559 107.907 288.557H106.608C106.75 287.02 107.844 285.99 109.698 285.99C111.33 285.99 112.487 286.878 112.487 288.161C112.487 288.922 112.122 289.429 111.393 289.809ZM120.056 286.18H121.323V293.945H119.897V288.13L114.921 293.945H114.509V286.18H115.936V290.982L120.056 286.18ZM127.857 286.18H129.283V293.945H127.857V290.839C127.271 291.03 126.589 291.14 126.082 291.14C124.276 291.14 123.056 290.142 123.071 288.684L123.103 286.18L124.529 286.196L124.498 288.668C124.482 289.461 125.179 289.904 126.177 289.904C126.748 289.904 127.366 289.793 127.857 289.635V286.18ZM136.731 286.18H138.157V293.945H136.731V290.618H132.927V293.945H131.501V286.18H132.927V289.35H136.731V286.18ZM145.915 286.18H147.182V293.945H145.756V288.13L140.78 293.945H140.368V286.18H141.795V290.982L145.915 286.18ZM155.364 283.756C154.683 284.311 153.795 284.612 152.734 284.612C151.672 284.612 150.785 284.311 150.103 283.756V282.298C150.753 282.979 151.735 283.407 152.734 283.407C153.732 283.407 154.715 282.979 155.364 282.298V283.756ZM154.952 286.18H156.22V293.945H154.794V288.13L149.818 293.945H149.406V286.18H150.832V290.982L154.952 286.18ZM93.8568 310.135C91.3055 310.135 89.7843 308.424 89.7843 305.936C89.7843 303.654 91.3848 301.99 93.5558 301.99C95.7584 301.99 96.7885 303.242 96.8519 304.922H95.4573C95.283 303.512 94.3798 303.195 93.5558 303.195C92.2246 303.195 91.2738 304.351 91.2738 305.936C91.2738 307.806 92.3831 308.852 93.9519 308.884C94.9661 308.899 95.9803 308.456 96.6617 307.727V309.232C95.9327 309.819 95.0136 310.135 93.8568 310.135ZM105.475 305.698C105.475 305.952 105.459 306.206 105.428 306.475H99.7071C99.8814 308.012 100.896 308.931 102.353 308.931C103.368 308.931 104.382 308.487 105.063 307.806V309.216C104.318 309.819 103.352 310.135 102.258 310.135C99.7546 310.135 98.2492 308.472 98.2492 305.936C98.2492 303.654 99.9131 301.99 101.957 301.99C104.287 301.99 105.475 303.559 105.475 305.698ZM101.957 303.131C100.785 303.131 99.8656 304.035 99.7071 305.35H104.017C103.954 303.638 102.924 303.131 101.957 303.131ZM111.42 301.99C113.527 301.99 114.89 303.591 114.89 306.063C114.89 308.535 113.527 310.135 111.42 310.135C110.216 310.135 109.217 309.47 108.647 308.392V313.463H107.22V302.18H108.647V303.733C109.217 302.656 110.216 301.99 111.42 301.99ZM110.976 308.931C112.434 308.931 113.401 307.79 113.401 306.063C113.401 304.336 112.434 303.195 110.976 303.195C109.487 303.195 108.647 304.177 108.647 306.063C108.647 307.949 109.487 308.931 110.976 308.931ZM121.696 302.18V303.448H119.24V309.945H117.814V303.448H115.357V302.18H121.696ZM128.675 302.18H129.943V309.945H128.517V304.13L123.541 309.945H123.129V302.18H124.555V306.982L128.675 302.18ZM141.421 301.99C143.354 301.99 144.654 303.623 144.654 306.063C144.654 308.503 143.354 310.135 141.421 310.135C140.312 310.135 139.408 309.533 138.886 308.519V313.463H137.459V308.519C136.936 309.533 136.033 310.135 134.924 310.135C132.991 310.135 131.691 308.503 131.691 306.063C131.691 303.623 132.991 301.99 134.924 301.99C136.033 301.99 136.936 302.592 137.459 303.607V298.663H138.886V303.607C139.408 302.592 140.312 301.99 141.421 301.99ZM135.399 308.931C136.762 308.931 137.539 307.949 137.539 306.063C137.539 304.177 136.762 303.195 135.399 303.195C134.068 303.195 133.181 304.336 133.181 306.063C133.181 307.79 134.068 308.931 135.399 308.931ZM140.946 308.931C142.277 308.931 143.164 307.79 143.164 306.063C143.164 304.336 142.277 303.195 140.946 303.195C139.583 303.195 138.806 304.177 138.806 306.063C138.806 307.949 139.583 308.931 140.946 308.931ZM147.117 300.437C146.562 300.437 146.166 300.041 146.166 299.487C146.166 298.932 146.562 298.536 147.117 298.536C147.671 298.536 148.068 298.932 148.068 299.487C148.068 300.041 147.671 300.437 147.117 300.437ZM146.404 309.945V302.18H147.83V309.945H146.404ZM157.456 309.945H155.396L151.482 306.269V309.945H150.056V302.18H151.482V305.683L155.032 302.18H156.822L153.067 305.841L157.456 309.945ZM161.408 301.99C163.309 301.99 164.434 303.084 164.434 304.938V309.945H163.008V308.44C162.374 309.502 161.281 310.135 160.108 310.135C158.698 310.135 157.779 309.327 157.779 308.091C157.779 306.776 158.935 306.158 160.584 305.778L161.629 305.54C162.596 305.318 163.056 305.112 163.056 304.494C163.056 303.686 162.342 303.21 161.186 303.21C160.14 303.21 159.015 303.797 158.317 304.494V303.004C159.173 302.339 160.33 301.99 161.408 301.99ZM160.441 309.01C161.946 309.01 163.008 308.075 163.008 306.76V305.984C162.691 306.174 162.247 306.364 161.756 306.491L161.075 306.649C159.791 306.95 159.252 307.346 159.252 308.012C159.252 308.63 159.696 309.01 160.441 309.01ZM171.929 302.18V303.448H169.472V309.945H168.046V303.448H165.59V302.18H171.929Z" fill="#231F1E"/>
<path d="M348.9 178.261L353.812 166.278L358.691 178.261H348.9ZM360.912 158.864H346.712L331.84 190.955H343.718L346.275 184.693H361.282L363.84 190.955H375.751L360.912 158.864Z" fill="white"/>
<path d="M252.158 167.124H265.382V190.955H276.251V167.124H289.474V158.864H252.158V167.124Z" fill="white"/>
<path d="M226.822 178.126H245.497V171.694H226.822V166.988H248.693V158.864H216.323V190.955H249.467V183H226.822V178.126Z" fill="white"/>
<path d="M211.68 164.585V158.864H176.45V167.124H195.394L176.181 185.268V190.955H211.781V182.696H192.668L211.68 164.585Z" fill="white"/>
<path d="M151.75 183.372C144.785 183.372 140.579 181.003 140.579 174.909C140.579 168.816 144.818 166.48 151.75 166.48C158.648 166.48 162.989 168.816 162.989 174.909C162.989 181.003 158.682 183.372 151.75 183.372ZM151.75 158.085C137.853 158.085 129.172 163.501 129.172 174.909C129.172 186.317 137.853 191.768 151.75 191.768C165.714 191.768 174.395 186.317 174.395 174.909C174.395 163.501 165.714 158.085 151.75 158.085Z" fill="white"/>
<path d="M99.8647 166.413H110.397C113.661 166.413 114.939 168.207 114.939 170.441C114.939 171.964 114.031 174.74 110.228 174.74H99.8647V166.413ZM125.942 170.475C125.942 163.705 121.635 158.864 111.339 158.864H89.1309V190.955H99.8647V181.883H106.796L114.502 190.955H127.894L118.91 180.563C123.385 178.599 125.942 174.402 125.942 170.475Z" fill="white"/>
<path d="M317.267 158.864L304.077 170.577V158.864H293.343V190.955H304.077V182.086L308.114 178.633L317.334 190.955H330.693L315.887 171.998L331.231 158.864H317.267Z" fill="white"/>
<g clip-path="url(#clip0_408_1972)">
<path d="M358 223V326H408V223H358Z" fill="white"/>
<path d="M363.184 317.151V318.372H402.09V317.151H363.184Z" fill="black"/>
<path d="M363.184 315.625V316.236H402.09V315.625H363.184Z" fill="black"/>
<path d="M363 312.056V314.21H398.011V312.056H363Z" fill="black"/>
<path d="M363 309.902V310.62H398.011V309.902H363Z" fill="black"/>
<path d="M363 307.748V308.466H398.011V307.748H363Z" fill="black"/>
<path d="M363 305.594V307.03H398.011V305.594H363Z" fill="black"/>
<path d="M363 300.568V302.722H398.011V300.568H363Z" fill="black"/>
<path d="M363 297.696V299.85H398.011V297.696H363Z" fill="black"/>
<path d="M363 295.541V296.978H398.011V295.541H363Z" fill="black"/>
<path d="M363 294.105V294.823H398.011V294.105H363Z" fill="black"/>
<path d="M363 290.515V293.387H398.011V290.515H363Z" fill="black"/>
<path d="M363 287.643V288.361H398.011V287.643H363Z" fill="black"/>
<path d="M363 286.207V286.925H398.011V286.207H363Z" fill="black"/>
<path d="M363 283.335V285.489H398.011V283.335H363Z" fill="black"/>
<path d="M363 279.745V281.181H398.011V279.745H363Z" fill="black"/>
<path d="M363 277.591V279.027H398.011V277.591H363Z" fill="black"/>
<path d="M363 275.437V276.873H398.011V275.437H363Z" fill="black"/>
<path d="M363 271.846V273.282H398.011V271.846H363Z" fill="black"/>
<path d="M363 270.41V271.128H398.011V270.41H363Z" fill="black"/>
<path d="M363 268.256V268.974H398.011V268.256H363Z" fill="black"/>
<path d="M363.184 264.057V265.278H402.09V264.057H363.184Z" fill="black"/>
<path d="M363.184 262.532V263.142H402.09V262.532H363.184Z" fill="black"/>
<path d="M363 259V261H398V259H363Z" fill="black"/>
<path d="M363 257V258H398V257H363Z" fill="black"/>
<path d="M363 254V255H398V254H363Z" fill="black"/>
<path d="M363 251.742V252.46H398.011V251.742H363Z" fill="black"/>
<path d="M363 248.87V250.306H398.011V248.87H363Z" fill="black"/>
<path d="M363 245.998V247.434H398.011V245.998H363Z" fill="black"/>
<path d="M363 242.407V244.562H398.011V242.407H363Z" fill="black"/>
<path d="M363 240.253V240.971H398.011V240.253H363Z" fill="black"/>
<path d="M363 238.099V239.535H398.011V238.099H363Z" fill="black"/>
<path d="M363 233.791V235.945H398.011V233.791H363Z" fill="black"/>
<path d="M363.184 232.323V232.933H402.09V232.323H363.184Z" fill="black"/>
<path d="M363.184 230.187V231.713H402.09V230.187H363.184Z" fill="black"/>
<path d="M405.084 280.075C405.084 281.244 404.118 281.965 402.55 281.965C400.982 281.965 400.016 281.244 400.016 280.075C400.016 278.906 400.982 278.185 402.55 278.185C404.118 278.185 405.084 278.906 405.084 280.075ZM404.503 280.075C404.503 279.305 403.782 278.857 402.55 278.857C401.318 278.857 400.597 279.305 400.597 280.075C400.597 280.845 401.318 281.293 402.55 281.293C403.782 281.293 404.503 280.845 404.503 280.075Z" fill="black"/>
<path d="M405.084 284.416C405.084 285.585 404.118 286.306 402.55 286.306C400.982 286.306 400.016 285.585 400.016 284.416C400.016 283.247 400.982 282.526 402.55 282.526C404.118 282.526 405.084 283.247 405.084 284.416ZM404.503 284.416C404.503 283.646 403.782 283.198 402.55 283.198C401.318 283.198 400.597 283.646 400.597 284.416C400.597 285.186 401.318 285.634 402.55 285.634C403.782 285.634 404.503 285.186 404.503 284.416Z" fill="black"/>
<path d="M405.084 288.757C405.084 289.926 404.118 290.647 402.55 290.647C400.982 290.647 400.016 289.926 400.016 288.757C400.016 287.588 400.982 286.867 402.55 286.867C404.118 286.867 405.084 287.588 405.084 288.757ZM404.503 288.757C404.503 287.987 403.782 287.539 402.55 287.539C401.318 287.539 400.597 287.987 400.597 288.757C400.597 289.527 401.318 289.975 402.55 289.975C403.782 289.975 404.503 289.527 404.503 288.757Z" fill="black"/>
<path d="M405.084 293.098C405.084 294.267 404.118 294.988 402.55 294.988C400.982 294.988 400.016 294.267 400.016 293.098C400.016 291.929 400.982 291.208 402.55 291.208C404.118 291.208 405.084 291.929 405.084 293.098ZM404.503 293.098C404.503 292.328 403.782 291.88 402.55 291.88C401.318 291.88 400.597 292.328 400.597 293.098C400.597 293.868 401.318 294.316 402.55 294.316C403.782 294.316 404.503 293.868 404.503 293.098Z" fill="black"/>
<path d="M405.084 297.439C405.084 298.608 404.118 299.329 402.55 299.329C400.982 299.329 400.016 298.608 400.016 297.439C400.016 296.27 400.982 295.549 402.55 295.549C404.118 295.549 405.084 296.27 405.084 297.439ZM404.503 297.439C404.503 296.669 403.782 296.221 402.55 296.221C401.318 296.221 400.597 296.669 400.597 297.439C400.597 298.209 401.318 298.657 402.55 298.657C403.782 298.657 404.503 298.209 404.503 297.439Z" fill="black"/>
<path d="M403.222 299.596H403.74V300.24H405V300.877H403.74V303.6L400.1 300.8V300.24H403.222V299.596ZM403.222 302.55V300.877H401.038L403.222 302.55Z" fill="black"/>
<path d="M404.426 238.066V235.805H405V239.284L402.718 237.289C402.151 236.792 401.857 236.519 401.346 236.519C400.87 236.526 400.576 236.883 400.576 237.464C400.576 238.108 400.94 238.472 401.57 238.458V239.13C400.639 239.123 400.016 238.451 400.016 237.45C400.016 236.512 400.492 235.889 401.346 235.889C401.801 235.889 402.298 236.162 402.998 236.785L404.426 238.066Z" fill="black"/>
<path d="M402.088 241.006C402.088 240.243 402.676 239.634 403.467 239.634C404.384 239.634 405.084 240.348 405.084 241.475C405.084 242.028 404.902 242.567 404.566 242.973H403.754C404.209 242.574 404.503 241.986 404.503 241.426C404.503 240.761 404.09 240.306 403.474 240.306C402.872 240.306 402.473 240.733 402.473 241.363C402.473 241.608 402.536 241.86 402.655 242.105H401.976L400.674 240.677V242.819H400.1V239.83H400.618L402.193 241.566C402.123 241.384 402.088 241.195 402.088 241.006Z" fill="black"/>
<path d="M401.815 244.858C401.815 244.102 402.389 243.325 403.411 243.325C404.405 243.325 405.084 244.123 405.084 245.103C405.084 246.118 404.426 246.86 403.432 246.86C402.781 246.86 402.137 246.622 401.234 245.887L400.1 244.963V244.186L401.535 245.425C401.724 245.586 402.074 245.908 402.438 246.062C402.018 245.754 401.815 245.306 401.815 244.858ZM404.524 245.103C404.524 244.438 404.083 243.997 403.418 243.997C402.76 243.997 402.326 244.438 402.326 245.096C402.326 245.782 402.767 246.237 403.432 246.237C404.09 246.237 404.524 245.782 404.524 245.103Z" fill="black"/>
<path d="M404.426 249.4V247.139H405V250.618L402.718 248.623C402.151 248.126 401.857 247.853 401.346 247.853C400.87 247.86 400.576 248.217 400.576 248.798C400.576 249.442 400.94 249.806 401.57 249.792V250.464C400.639 250.457 400.016 249.785 400.016 248.784C400.016 247.846 400.492 247.223 401.346 247.223C401.801 247.223 402.298 247.496 402.998 248.119L404.426 249.4Z" fill="black"/>
<path d="M402.088 252.34C402.088 251.577 402.676 250.968 403.467 250.968C404.384 250.968 405.084 251.682 405.084 252.809C405.084 253.362 404.902 253.901 404.566 254.307H403.754C404.209 253.908 404.503 253.32 404.503 252.76C404.503 252.095 404.09 251.64 403.474 251.64C402.872 251.64 402.473 252.067 402.473 252.697C402.473 252.942 402.536 253.194 402.655 253.439H401.976L400.674 252.011V254.153H400.1V251.164H400.618L402.193 252.9C402.123 252.718 402.088 252.529 402.088 252.34Z" fill="black"/>
<path d="M405.084 256.69C405.084 257.859 404.118 258.58 402.55 258.58C400.982 258.58 400.016 257.859 400.016 256.69C400.016 255.521 400.982 254.8 402.55 254.8C404.118 254.8 405.084 255.521 405.084 256.69ZM404.503 256.69C404.503 255.92 403.782 255.472 402.55 255.472C401.318 255.472 400.597 255.92 400.597 256.69C400.597 257.46 401.318 257.908 402.55 257.908C403.782 257.908 404.503 257.46 404.503 256.69Z" fill="black"/>
<path d="M404.426 321.712V319.451H405V322.93L402.718 320.935C402.151 320.438 401.857 320.165 401.346 320.165C400.87 320.172 400.576 320.529 400.576 321.11C400.576 321.754 400.94 322.118 401.57 322.104V322.776C400.639 322.769 400.016 322.097 400.016 321.096C400.016 320.158 400.492 319.535 401.346 319.535C401.801 319.535 402.298 319.808 402.998 320.431L404.426 321.712Z" fill="black"/>
</g>
<rect x="58" y="130" width="350" height="220" rx="16.383" fill="black" fill-opacity="0.15"/>
<path fill-rule="evenodd" clip-rule="evenodd" d="M76.6674 2.87472e-06L16.0293 0C7.17656 -3.86706e-07 1.42942e-05 7.17655 1.3907e-05 16.0293L0 333.971C-3.87226e-07 342.823 7.17654 350 16.0293 350H203.971C212.823 350 220 342.823 220 333.971L220 16.0293C220 7.17655 212.823 8.90988e-06 203.971 8.90988e-06L143.333 6.03517e-06C142.51 16.9296 127.901 30.4137 110 30.4137C92.0986 30.4137 77.4896 16.9296 76.6674 2.87472e-06Z" fill="#00BD47"/>
<path d="M187.417 97.1776L190.445 89.9899L193.452 97.1776H187.417ZM194.821 85.5432H186.069L176.902 104.792H184.223L185.799 101.035H195.049L196.625 104.792H203.966L194.821 85.5432Z" fill="white"/>
<path d="M127.792 90.4975H135.942V104.792H142.641V90.4975H150.791V85.5432H127.792V90.4975Z" fill="white"/>
<path d="M112.176 97.0964H123.686V93.2385H112.176V90.4162H125.656V85.5432H105.705V104.792H126.133V100.02H112.176V97.0964Z" fill="white"/>
<path d="M102.844 88.9746V85.5432H81.1308V90.4975H92.8067L80.9648 101.381V104.792H102.906V99.8374H91.1268L102.844 88.9746Z" fill="white"/>
<path d="M65.9069 100.243C61.614 100.243 59.0216 98.8222 59.0216 95.1674C59.0216 91.5126 61.6347 90.1116 65.9069 90.1116C70.1584 90.1116 72.8337 91.5126 72.8337 95.1674C72.8337 98.8222 70.1791 100.243 65.9069 100.243ZM65.9069 85.0762C57.3418 85.0762 51.9912 88.3249 51.9912 95.1674C51.9912 102.01 57.3418 105.279 65.9069 105.279C74.5135 105.279 79.8641 102.01 79.8641 95.1674C79.8641 88.3249 74.5135 85.0762 65.9069 85.0762Z" fill="white"/>
<path d="M33.9291 90.0711H40.4204C42.432 90.0711 43.2201 91.1472 43.2201 92.4873C43.2201 93.401 42.6602 95.0659 40.3167 95.0659H33.9291V90.0711ZM50.0017 92.5076C50.0017 88.4467 47.3471 85.5432 41.0011 85.5432H27.3135V104.792H33.9291V99.3501H38.2013L42.9505 104.792H51.2045L45.6673 98.5583C48.4255 97.3806 50.0017 94.8629 50.0017 92.5076Z" fill="white"/>
<path d="M167.922 85.5432L159.792 92.5685V85.5432H153.177V104.792H159.792V99.472L162.281 97.4009L167.963 104.792H176.197L167.072 93.4213L176.529 85.5432H167.922Z" fill="white"/>
<ellipse cx="170.972" cy="297.793" rx="25.9738" ry="25.9564" fill="#FFEA00"/>
<path d="M185.582 296.961C185.582 298.15 185.502 299.28 185.344 300.351H163.919C164.434 302.254 165.466 303.76 167.013 304.871C168.6 305.941 170.544 306.476 172.846 306.476C174.829 306.476 176.793 306.159 178.738 305.525C180.682 304.89 182.229 304.137 183.38 303.265V310.104C180.483 312.087 176.833 313.078 172.429 313.078C169.136 313.078 166.279 312.404 163.859 311.056C161.439 309.708 159.574 307.844 158.265 305.465C156.995 303.086 156.36 300.37 156.36 297.317C156.36 294.344 157.015 291.747 158.324 289.526C159.673 287.266 161.479 285.541 163.74 284.352C166.002 283.123 168.521 282.508 171.298 282.508C175.901 282.508 179.432 283.856 181.892 286.553C184.352 289.209 185.582 292.678 185.582 296.961ZM171.001 288.694C169.176 288.694 167.589 289.269 166.24 290.418C164.93 291.529 164.117 292.996 163.8 294.819H178.202C178.083 292.639 177.329 291.073 175.94 290.121C174.552 289.169 172.905 288.694 171.001 288.694Z" fill="#231F1E"/>
<path d="M31.116 284.607H25.7825V287.925H30.3408V289.227H25.7825V292.855H31.116V294.157H24.2941V283.304H31.116V284.607ZM39.1562 286.56V294.157H37.7608V287.801H34.97V289.196C34.97 292.855 34.4894 294.204 32.7529 294.204C32.4583 294.204 32.2257 294.188 31.9621 294.08V292.778C32.2102 292.886 32.4273 292.948 32.6288 292.948C33.404 292.948 33.5746 291.847 33.5746 288.886V286.56H39.1562ZM47.9291 290.002C47.9291 290.25 47.9136 290.498 47.8826 290.762H42.2855C42.456 292.266 43.4483 293.165 44.8747 293.165C45.867 293.165 46.8593 292.731 47.526 292.064V293.444C46.7973 294.033 45.8515 294.344 44.7817 294.344C42.332 294.344 40.859 292.716 40.859 290.235C40.859 288.002 42.487 286.374 44.4871 286.374C46.7663 286.374 47.9291 287.909 47.9291 290.002ZM44.4871 287.491C43.3398 287.491 42.4405 288.374 42.2855 289.661H46.5027C46.4407 287.987 45.4329 287.491 44.4871 287.491ZM56.8772 294.157H54.8617L51.032 290.56V294.157H49.6366V286.56H51.032V289.987L54.5051 286.56H56.2571L52.5825 290.142L56.8772 294.157ZM63.2394 286.56V287.801H60.8362V294.157H59.4408V287.801H57.0376V286.56H63.2394ZM68.7502 286.374C70.8123 286.374 72.1457 287.94 72.1457 290.359C72.1457 292.778 70.8123 294.344 68.7502 294.344C67.5718 294.344 66.595 293.692 66.0369 292.638V297.599H64.6415V286.56H66.0369V288.08C66.595 287.025 67.5718 286.374 68.7502 286.374ZM68.316 293.165C69.7425 293.165 70.6882 292.049 70.6882 290.359C70.6882 288.669 69.7425 287.553 68.316 287.553C66.8586 287.553 66.0369 288.514 66.0369 290.359C66.0369 292.204 66.8586 293.165 68.316 293.165ZM77.3668 294.344C75.0566 294.344 73.3821 292.669 73.3821 290.359C73.3821 288.049 75.0566 286.374 77.3668 286.374C79.677 286.374 81.3514 288.049 81.3514 290.359C81.3514 292.669 79.677 294.344 77.3668 294.344ZM77.3668 293.165C78.8862 293.165 79.894 292.049 79.894 290.359C79.894 288.669 78.8862 287.553 77.3668 287.553C75.8473 287.553 74.8396 288.669 74.8396 290.359C74.8396 292.049 75.8473 293.165 77.3668 293.165ZM88.1695 286.56H89.5649V294.157H88.1695V290.902H84.4485V294.157H83.0531V286.56H84.4485V289.661H88.1695V286.56ZM96.8454 286.56H98.2408V294.157H96.8454V290.902H93.1243V294.157H91.7289V286.56H93.1243V289.661H96.8454V286.56ZM105.831 286.56H107.072V294.157H105.676V288.467L100.808 294.157H100.405V286.56H101.8V291.258L105.831 286.56ZM115.077 284.188C114.41 284.731 113.542 285.025 112.503 285.025C111.464 285.025 110.596 284.731 109.929 284.188V282.762C110.565 283.428 111.526 283.847 112.503 283.847C113.48 283.847 114.441 283.428 115.077 282.762V284.188ZM114.674 286.56H115.914V294.157H114.519V288.467L109.65 294.157H109.247V286.56H110.643V291.258L114.674 286.56ZM27.6585 310.344C25.1623 310.344 23.6739 308.669 23.6739 306.235C23.6739 304.002 25.2398 302.374 27.364 302.374C29.5191 302.374 30.5269 303.599 30.5889 305.243H29.2245C29.0539 303.863 28.1702 303.553 27.364 303.553C26.0616 303.553 25.1313 304.684 25.1313 306.235C25.1313 308.064 26.2166 309.088 27.7516 309.119C28.7439 309.134 29.7361 308.7 30.4028 307.987V309.46C29.6896 310.033 28.7904 310.344 27.6585 310.344ZM39.0261 306.002C39.0261 306.25 39.0106 306.498 38.9796 306.762H33.3825C33.553 308.266 34.5453 309.165 35.9717 309.165C36.964 309.165 37.9563 308.731 38.623 308.064V309.444C37.8943 310.033 36.9485 310.344 35.8787 310.344C33.429 310.344 31.9561 308.716 31.9561 306.235C31.9561 304.002 33.584 302.374 35.5841 302.374C37.8633 302.374 39.0261 303.909 39.0261 306.002ZM35.5841 303.491C34.4368 303.491 33.5375 304.374 33.3825 305.661H37.5997C37.5377 303.987 36.5299 303.491 35.5841 303.491ZM44.8424 302.374C46.9045 302.374 48.2378 303.94 48.2378 306.359C48.2378 308.778 46.9045 310.344 44.8424 310.344C43.664 310.344 42.6872 309.692 42.1291 308.638V313.599H40.7337V302.56H42.1291V304.08C42.6872 303.025 43.664 302.374 44.8424 302.374ZM44.4082 309.165C45.8347 309.165 46.7804 308.049 46.7804 306.359C46.7804 304.669 45.8347 303.553 44.4082 303.553C42.9508 303.553 42.1291 304.514 42.1291 306.359C42.1291 308.204 42.9508 309.165 44.4082 309.165ZM54.8967 302.56V303.801H52.4935V310.157H51.0981V303.801H48.6949V302.56H54.8967ZM61.7253 302.56H62.9657V310.157H61.5703V304.467L56.7018 310.157H56.2987V302.56H57.6941V307.258L61.7253 302.56ZM74.1958 302.374C76.0873 302.374 77.3587 303.971 77.3587 306.359C77.3587 308.747 76.0873 310.344 74.1958 310.344C73.1104 310.344 72.2267 309.754 71.715 308.762V313.599H70.3196V308.762C69.808 309.754 68.9242 310.344 67.8389 310.344C65.9474 310.344 64.676 308.747 64.676 306.359C64.676 303.971 65.9474 302.374 67.8389 302.374C68.9242 302.374 69.808 302.963 70.3196 303.956V299.118H71.715V303.956C72.2267 302.963 73.1104 302.374 74.1958 302.374ZM68.3041 309.165C69.6374 309.165 70.3972 308.204 70.3972 306.359C70.3972 304.514 69.6374 303.553 68.3041 303.553C67.0017 303.553 66.1334 304.669 66.1334 306.359C66.1334 308.049 67.0017 309.165 68.3041 309.165ZM73.7306 309.165C75.033 309.165 75.9013 308.049 75.9013 306.359C75.9013 304.669 75.033 303.553 73.7306 303.553C72.3972 303.553 71.6375 304.514 71.6375 306.359C71.6375 308.204 72.3972 309.165 73.7306 309.165ZM79.7687 300.855C79.226 300.855 78.8384 300.467 78.8384 299.925C78.8384 299.382 79.226 298.994 79.7687 298.994C80.3113 298.994 80.6989 299.382 80.6989 299.925C80.6989 300.467 80.3113 300.855 79.7687 300.855ZM79.0709 310.157V302.56H80.4664V310.157H79.0709ZM89.8848 310.157H87.8693L84.0397 306.56V310.157H82.6442V302.56H84.0397V305.987L87.5127 302.56H89.2647L85.5901 306.142L89.8848 310.157ZM93.7508 302.374C95.6113 302.374 96.7122 303.444 96.7122 305.258V310.157H95.3167V308.685C94.6966 309.723 93.6268 310.344 92.4794 310.344C91.0995 310.344 90.2003 309.553 90.2003 308.343C90.2003 307.057 91.3321 306.452 92.9446 306.08L93.9679 305.847C94.9136 305.63 95.3633 305.429 95.3633 304.824C95.3633 304.033 94.6656 303.568 93.5337 303.568C92.5104 303.568 91.4096 304.142 90.7274 304.824V303.367C91.5647 302.715 92.6965 302.374 93.7508 302.374ZM92.805 309.243C94.2779 309.243 95.3167 308.328 95.3167 307.041V306.281C95.0067 306.467 94.5725 306.653 94.0919 306.777L93.4252 306.933C92.1693 307.227 91.6422 307.615 91.6422 308.266C91.6422 308.871 92.0763 309.243 92.805 309.243ZM104.045 302.56V303.801H101.641V310.157H100.246V303.801H97.8429V302.56H104.045Z" fill="#231F1E"/>
<defs>
<clipPath id="clip0_408_1972">
<rect width="101" height="50" fill="white" transform="matrix(0 -1 1 0 358 326)"/>
</clipPath>
</defs>
</svg>
